<svg width="256" height="256" viewBox="-5 -80 470 470" fill="none" xmlns="http://www.w3.org/2000/svg" role="img" aria-labelledby="title">
  <title id="title">DerivAL star mark</title>
  <defs>
    <linearGradient id="markGradient" x1="151" y1="58" x2="255" y2="260" gradientUnits="userSpaceOnUse">
      <stop offset="0%" stop-color="#F7E8FF"/>
      <stop offset="34%" stop-color="#C084FC"/>
      <stop offset="72%" stop-color="#D12789"/>
      <stop offset="100%" stop-color="#6B1045"/>
    </linearGradient>
    <filter id="neonBlur" x="20" y="-20" width="520" height="360" filterUnits="userSpaceOnUse" color-interpolation-filters="sRGB">
      <feGaussianBlur stdDeviation="13"/>
    </filter>
  </defs>

  <g transform="rotate(-18 210 136)">
    <g filter="url(#neonBlur)" opacity="0.62">
      <path d="M210 18L241.1 101.8L329.7 108.7L261.4 165.4L283.2 251.8L210 203.3L136.8 251.8L158.6 165.4L90.3 108.7L178.9 101.8L210 18Z" fill="#8B2FFF"/>
    </g>

    <path d="M210 18L241.1 101.8L329.7 108.7L261.4 165.4L283.2 251.8L210 203.3L136.8 251.8L158.6 165.4L90.3 108.7L178.9 101.8L210 18Z" fill="url(#markGradient)"/>
    <path d="M210 48.4L234.3 113.6L303.2 119L250 163.1L267 230.4L210 192.7L153 230.4L170 163.1L116.8 119L185.7 113.6L210 48.4Z" fill="#050508" fill-opacity="0.88"/>

    <path d="M203.5 76.6H225.8L197.4 226.2H175.1L203.5 76.6Z" fill="#F7E8FF"/>
    <path d="M238.1 102.3L262 154.5L218.4 206.2H193.6L237.7 154.3L214.4 102.3H238.1Z" fill="#C084FC"/>
    <path d="M160.4 128.9H188.8L185.3 147.7H156.8L160.4 128.9Z" fill="#D12789"/>
    <path d="M153 167.7H181.3L177.8 186.4H149.4L153 167.7Z" fill="#D12789"/>
  </g>
</svg>
